<svg xmlns="http://www.w3.org/2000/svg" viewBox="0 0 800 800">
  <defs>
    <style>
      .cls-1 {
        fill: #141526;
      }
    </style>
  </defs>
  <path id="gauge_keyhole_window" class="cls-1" d="M861,861H61V61H861V861ZM461,72.86a394.377,394.377,0,0,0-39.685,2A387.566,387.566,0,0,0,74.864,421.314a394.039,394.039,0,0,0,0,79.37,387.186,387.186,0,0,0,93.357,215.139L277.746,606.3A232.794,232.794,0,0,1,227.039,461c0-129.007,104.955-233.961,233.962-233.961S694.963,331.992,694.963,461a232.794,232.794,0,0,1-50.232,144.7l109.55,109.551a388.342,388.342,0,0,0,64.358-103.165,385.913,385.913,0,0,0,28.5-111.4,393.71,393.71,0,0,0,0-79.37A387.558,387.558,0,0,0,500.685,74.864,394.376,394.376,0,0,0,461,72.86Z" transform="translate(-61 -61)"/>
</svg>
