<svg xmlns="http://www.w3.org/2000/svg" viewBox="0 0 800 800">
  <defs>
    <style>
      .cls-1 {
        fill: #141526;
      }
    </style>
  </defs>
  <path id="Subtraction_22" data-name="Subtraction 22" class="cls-1" d="M861,861H61V61H861V861ZM461,72.86a394.492,394.492,0,0,0-39.685,2A387.555,387.555,0,0,0,74.864,421.314a393.982,393.982,0,0,0,0,79.371A387.344,387.344,0,0,0,175.3,723.738L284.558,614.485A233.679,233.679,0,0,1,227.038,461c0-129.007,104.955-233.962,233.962-233.962S694.962,331.993,694.962,461a233.748,233.748,0,0,1-57.02,152.909L747.211,723.176a388.53,388.53,0,0,0,71.428-111.1,385.96,385.96,0,0,0,28.5-111.4,394.014,394.014,0,0,0,0-79.371A387.566,387.566,0,0,0,500.686,74.864,394.491,394.491,0,0,0,461,72.86Z" transform="translate(-61 -61)"/>
</svg>
